Release Information:

Smokin.Aces.2006.720p.BRRip.XviD.AC3-PsychoLogic

Source                           : Smokin'.Aces.2006.1080p.BluRay.DTS.x264-CtrlHD
Subtitles                        : Bulgarian, Croatian, Czech, Danish, English, Finnish, French, Hebrew, Hungarian, Indonesian, Lithuanian, Polish, Serbian, Slovenian, Spanish, Vietnamese
Language                         : English
Encoded By                       : PsychoLogic
Sample Included                  : Yes

Movie Information                : http://www.imdb.com/title/tt0475394/
Genre                            : Action | Crime | Drama
Director                         : Joe Carnahan
Cast                             : Jeremy Piven, Ryan Reynolds and Ray Liotta
Plot                             : When a Las Vegas performer-turned-snitch named Buddy Israel decides to turn state's evidence and testify against the mob, it seems that a whole lot of people would like to make sure he's no longer breathing. 

General
Format                           : AVI
Format/Info                      : Audio Video Interleave
Format profile                   : OpenDML
File size                        : 2.63 GiB
Duration                         : 1h 48mn
Overall bit rate                 : 3 459 Kbps
Writing application              : VirtualDubMod 1.5.10.2 (build 2542/release)
Writing library                  : VirtualDubMod build 2542/release

Video
ID                               : 0
Format                           : MPEG-4 Visual
Format profile                   : Advanced Simple@L5
Format settings, BVOP            : 2
Format settings, QPel            : No
Format settings, GMC             : No warppoints
Format settings, Matrix          : Default (H.263)
Codec ID                         : XVID
Codec ID/Hint                    : XviD
Duration                         : 1h 48mn
Bit rate                         : 3 000 Kbps
Width                            : 1 280 pixels
Height                           : 544 pixels
Display aspect ratio             : 2.35:1
Frame rate                       : 23.976 fps
Color space                      : YUV
Chroma subsampling               : 4:2:0
Bit depth                        : 8 bits
Scan type                        : Progressive
Compression mode                 : Lossy
Bits/(Pixel*Frame)               : 0.180
Stream size                      : 2.28 GiB (87%)
Writing library                  : XviD 1.2.1 (UTC 2008-12-04)

Audio
ID                               : 1
Format                           : AC-3
Format/Info                      : Audio Coding 3
Mode extension                   : CM (complete main)
Codec ID                         : 2000
Duration                         : 1h 48mn
Bit rate mode                    : Constant
Bit rate                         : 448 Kbps
Channel(s)                       : 6 channels
Channel positions                : Front: L C R, Side: L R, LFE
Sampling rate                    : 48.0 KHz
Bit depth                        : 16 bits
Compression mode                 : Lossy
Stream size                      : 349 MiB (13%)
Alignment                        : Split accross interleaves
Interleave, duration             : 42 ms (1.00 video frame)
Interleave, preload duration     : 500 ms

